<svg viewBox="0 0 14 14" xmlns="http://www.w3.org/2000/svg"><path d="m7 3.6885v.001c-1.827 0-3.31 1.483-3.31 3.31s1.483 3.31 3.31 3.31 3.31-1.483 3.31-3.31c0-1.828-1.482-3.31-3.31-3.3115zm-1.431 4.123h-.4975v-.168l-.091.077c-.071.054-.152.094-.2385.1165-.041.01-.101.0175-.176.0175-.131.0035-.2575-.0485-.349-.1425-.0935-.095-.1385-.213-.1385-.358 0-.119.023-.2135.07-.287.05-.075.12-.135.2025-.174.1025-.045.2115-.076.323-.09.125-.0165.258-.03.4015-.039v-.0085c0-.088-.033-.1485-.098-.1815-.065-.035-.161-.051-.29-.051-.0585 0-.127.01-.205.0315-.079.022-.154.05-.229.082h-.0435v-.385c.0485-.015.128-.031.24-.05.1085-.02.219-.03.3315-.03.275 0 .475.046.6.138.125.0915.1875.231.1875.4185v1.084zm1.61-.0835c-.035.014-.067.028-.1.043-.037.015-.075.029-.115.04-.047.012-.093.022-.135.03-.042.007-.098.011-.168.011-.1315 0-.253-.0165-.3615-.05-.105-.031-.203-.0825-.285-.1535-.0815-.071-.146-.16-.1865-.26-.045-.105-.0675-.2285-.0675-.369-.004-.135.021-.2675.073-.39.045-.102.112-.192.196-.265.0825-.067.1775-.1165.28-.145.11-.033.2235-.048.3375-.048.185 0 .366.0435.53.1275v.427h-.0635c-.024-.0215-.048-.0425-.0735-.062-.03-.024-.061-.045-.094-.063-.0835-.0475-.1785-.072-.275-.07-.127 0-.225.043-.295.1315-.069.0885-.105.207-.105.357 0 .16.0375.28.1125.3575.075.0785.1735.1175.296.1175.055 0 .111-.0065.165-.021.0765-.0215.1475-.06.2075-.1125.024-.02.044-.041.0615-.055h.065v.4215zm2.1665.0865v-.7985c0-.0785 0-.145-.0035-.1985-.001-.045-.01-.09-.026-.1315-.0115-.033-.035-.06-.065-.075-.0765-.032-.1625-.0315-.239.001-.043.02-.084.0435-.122.07v1.1315h-.4965v-.7975c0-.078-.0015-.143-.005-.198-.0015-.045-.01-.09-.025-.132-.0135-.033-.038-.06-.068-.075-.03-.0165-.0725-.024-.125-.024-.0415 0-.0825.01-.12.028-.039.02-.076.043-.114.068v1.131h-.4975v-1.594h.4965v.178c.072-.0625.148-.1165.23-.1615.074-.04.157-.06.242-.06.091-.002.18.0225.257.07.0765.05.135.122.17.207.095-.0885.185-.157.27-.205s.17-.0725.2575-.0725c.068-.001.135.0115.198.0375.0575.022.11.058.15.105.045.053.08.115.1.182.0225.071.033.164.033.2765v1.038h-.4975zm-2.3455-6.8145-6 6 6 6 6-6zm0 9.6785c-2.031-.001-3.6775-1.647-3.6785-3.6785.001-2.031 1.6475-3.678 3.6785-3.679 2.0315.001 3.6775 1.6475 3.6785 3.679-.001 2.0315-1.647 3.6775-3.6785 3.6785zm-2.2825-3.5535c-.04.0125-.075.036-.101.0675-.024.036-.0365.079-.035.1225 0 .075.019.126.06.154.0385.028.097.041.176.041.0435 0 .087-.01.132-.03.045-.019.087-.0475.1225-.0825v-.33c-.084.0075-.1515.015-.2025.0225-.0525.005-.1035.017-.1525.035z"/></svg>